<svg xmlns="http://www.w3.org/2000/svg" version="1.1" xmlns:xlink="http://www.w3.org/1999/xlink" xmlns:svgjs="http://svgjs.dev/svgjs" width="1000" height="154" viewBox="0 0 1000 154"><g transform="matrix(1,0,0,1,-0.6060605672088855,0.21376097676997574)"><svg viewBox="0 0 396 61" data-background-color="#ffffff" preserveAspectRatio="xMidYMid meet" height="154" width="1000" xmlns="http://www.w3.org/2000/svg" xmlns:xlink="http://www.w3.org/1999/xlink"><g id="tight-bounds" transform="matrix(1,0,0,1,0.2400000153853057,-0.08467155573356422)"><svg viewBox="0 0 395.52 61.16934311146711" height="61.16934311146711" width="395.52"><g><svg viewBox="0 0 559.6583282121833 86.55423822714683" height="61.16934311146711" width="395.52"><g><rect width="6.504625439414959" height="86.55423822714683" x="412.54781528642656" y="0" fill="#636365" opacity="1" stroke-width="0" stroke="transparent" fill-opacity="1" class="rect-o-0" data-fill-palette-color="primary" rx="1%" id="o-0" data-palette-color="#636365"></rect></g><g transform="matrix(1,0,0,1,0,7.21285318559557)"><svg viewBox="0 0 395.52 72.12853185595569" height="72.12853185595569" width="395.52"><g id="textblocktransform"><svg viewBox="0 0 395.52 72.12853185595569" height="72.12853185595569" width="395.52" id="textblock"><g><svg viewBox="0 0 395.52 72.12853185595569" height="72.12853185595569" width="395.52"><g transform="matrix(1,0,0,1,0,0)"><svg width="395.52" viewBox="1.850000023841858 -38.79999923706055 216.57998657226562 39.5" height="72.12853185595569" data-palette-color="#636365"><path d="M13.45-5.95L13.45-5.95Q15.1-5.95 16.18-6.23 17.25-6.5 17.9-6.98 18.55-7.45 18.8-8.1 19.05-8.75 19.05-9.55L19.05-9.55Q19.05-11.25 17.45-12.38 15.85-13.5 11.95-14.8L11.95-14.8Q10.25-15.4 8.55-16.18 6.85-16.95 5.5-18.13 4.15-19.3 3.3-20.98 2.45-22.65 2.45-25.05L2.45-25.05Q2.45-27.45 3.35-29.38 4.25-31.3 5.9-32.65 7.55-34 9.9-34.73 12.25-35.45 15.2-35.45L15.2-35.45Q18.7-35.45 21.25-34.7 23.8-33.95 25.45-33.05L25.45-33.05 23.2-26.9Q21.75-27.65 19.98-28.23 18.2-28.8 15.7-28.8L15.7-28.8Q12.9-28.8 11.68-28.03 10.45-27.25 10.45-25.65L10.45-25.65Q10.45-24.7 10.9-24.05 11.35-23.4 12.18-22.88 13-22.35 14.08-21.93 15.15-21.5 16.45-21.05L16.45-21.05Q19.15-20.05 21.15-19.07 23.15-18.1 24.48-16.8 25.8-15.5 26.45-13.75 27.1-12 27.1-9.5L27.1-9.5Q27.1-4.65 23.7-1.98 20.3 0.7 13.45 0.7L13.45 0.7Q11.15 0.7 9.3 0.43 7.45 0.15 6.03-0.25 4.6-0.65 3.58-1.1 2.55-1.55 1.85-1.95L1.85-1.95 4.05-8.15Q5.6-7.3 7.88-6.63 10.15-5.95 13.45-5.95ZM40.05-26.3L40.05 0 32.6 0 32.6-26.3 40.05-26.3ZM40.75-33.9L40.75-33.9Q40.75-31.85 39.42-30.68 38.1-29.5 36.3-29.5L36.3-29.5Q34.5-29.5 33.17-30.68 31.85-31.85 31.85-33.9L31.85-33.9Q31.85-35.95 33.17-37.13 34.5-38.3 36.3-38.3L36.3-38.3Q38.1-38.3 39.42-37.13 40.75-35.95 40.75-33.9ZM64.15-25.85L62.9-19.7Q61.9-19.95 60.55-20.23 59.2-20.5 57.65-20.5L57.65-20.5Q56.95-20.5 55.97-20.38 55-20.25 54.5-20.1L54.5-20.1 54.5 0 47.05 0 47.05-24.9Q49.05-25.6 51.77-26.23 54.5-26.85 57.84-26.85L57.84-26.85Q58.45-26.85 59.3-26.78 60.15-26.7 61-26.58 61.84-26.45 62.7-26.28 63.55-26.1 64.15-25.85L64.15-25.85ZM77.69-5.2L77.69-5.2Q78.79-5.2 79.79-5.25 80.79-5.3 81.39-5.4L81.39-5.4 81.39-11.05Q80.94-11.15 80.04-11.25 79.14-11.35 78.39-11.35L78.39-11.35Q77.34-11.35 76.42-11.23 75.49-11.1 74.79-10.75 74.09-10.4 73.69-9.8 73.29-9.2 73.29-8.3L73.29-8.3Q73.29-6.55 74.47-5.88 75.64-5.2 77.69-5.2ZM77.09-27L77.09-27Q80.39-27 82.59-26.25 84.79-25.5 86.12-24.1 87.44-22.7 87.99-20.7 88.54-18.7 88.54-16.25L88.54-16.25 88.54-0.75Q86.94-0.4 84.09 0.08 81.24 0.55 77.19 0.55L77.19 0.55Q74.64 0.55 72.57 0.1 70.49-0.35 68.99-1.38 67.49-2.4 66.69-4.05 65.89-5.7 65.89-8.1L65.89-8.1Q65.89-10.4 66.82-12 67.74-13.6 69.29-14.55 70.84-15.5 72.84-15.93 74.84-16.35 76.99-16.35L76.99-16.35Q78.44-16.35 79.57-16.23 80.69-16.1 81.39-15.9L81.39-15.9 81.39-16.6Q81.39-18.5 80.24-19.65 79.09-20.8 76.24-20.8L76.24-20.8Q74.34-20.8 72.49-20.53 70.64-20.25 69.29-19.75L69.29-19.75 68.34-25.75Q68.99-25.95 69.97-26.18 70.94-26.4 72.09-26.58 73.24-26.75 74.52-26.88 75.79-27 77.09-27ZM95.29 0L95.29-25.4Q97.19-25.95 100.19-26.43 103.19-26.9 106.49-26.9L106.49-26.9Q109.84-26.9 112.07-26.03 114.29-25.15 115.59-23.55 116.89-21.95 117.44-19.75 117.99-17.55 117.99-14.85L117.99-14.85 117.99 0 110.54 0 110.54-13.95Q110.54-17.55 109.59-19.05 108.64-20.55 106.04-20.55L106.04-20.55Q105.24-20.55 104.34-20.48 103.44-20.4 102.74-20.3L102.74-20.3 102.74 0 95.29 0ZM132.04-3.95L132.04-3.95Q132.04-1.7 130.61-0.53 129.19 0.65 127.39 0.65L127.39 0.65Q125.59 0.65 124.16-0.53 122.74-1.7 122.74-3.95L122.74-3.95Q122.74-6.2 124.16-7.38 125.59-8.55 127.39-8.55L127.39-8.55Q129.19-8.55 130.61-7.38 132.04-6.2 132.04-3.95ZM141.89-13.35L141.89-13.35Q141.89-9.9 143.44-7.8 144.99-5.7 148.04-5.7L148.04-5.7Q149.04-5.7 149.89-5.78 150.74-5.85 151.29-5.95L151.29-5.95 151.29-19.5Q150.59-19.95 149.46-20.25 148.34-20.55 147.19-20.55L147.19-20.55Q141.89-20.55 141.89-13.35ZM158.74-38.8L158.74-0.85Q157.74-0.55 156.44-0.28 155.14 0 153.71 0.2 152.29 0.4 150.81 0.53 149.34 0.65 147.99 0.65L147.99 0.65Q144.74 0.65 142.19-0.3 139.64-1.25 137.89-3.03 136.14-4.8 135.21-7.33 134.29-9.85 134.29-13L134.29-13Q134.29-16.2 135.09-18.78 135.89-21.35 137.39-23.15 138.89-24.95 141.06-25.9 143.24-26.85 146.04-26.85L146.04-26.85Q147.59-26.85 148.81-26.55 150.04-26.25 151.29-25.7L151.29-25.7 151.29-37.6 158.74-38.8ZM164.48-12.95L164.48-12.95Q164.48-16.45 165.56-19.07 166.63-21.7 168.38-23.45 170.13-25.2 172.41-26.1 174.68-27 177.08-27L177.08-27Q182.68-27 185.93-23.58 189.18-20.15 189.18-13.5L189.18-13.5Q189.18-12.85 189.13-12.08 189.08-11.3 189.03-10.7L189.03-10.7 172.13-10.7Q172.38-8.4 174.28-7.05 176.18-5.7 179.38-5.7L179.38-5.7Q181.43-5.7 183.41-6.08 185.38-6.45 186.63-7L186.63-7 187.63-0.95Q187.03-0.65 186.03-0.35 185.03-0.05 183.81 0.18 182.58 0.4 181.18 0.55 179.78 0.7 178.38 0.7L178.38 0.7Q174.83 0.7 172.21-0.35 169.58-1.4 167.86-3.23 166.13-5.05 165.31-7.55 164.48-10.05 164.48-12.95ZM172.13-15.8L181.98-15.8Q181.93-16.75 181.66-17.65 181.38-18.55 180.81-19.25 180.23-19.95 179.36-20.4 178.48-20.85 177.18-20.85L177.18-20.85Q175.93-20.85 175.03-20.43 174.13-20 173.53-19.3 172.93-18.6 172.61-17.68 172.28-16.75 172.13-15.8L172.13-15.8ZM208.28 0L202.08 0Q199.53-5 196.91-11.7 194.28-18.4 191.93-26.3L191.93-26.3 199.83-26.3Q200.33-24.35 201-22.08 201.68-19.8 202.41-17.48 203.13-15.15 203.86-12.95 204.58-10.75 205.28-8.95L205.28-8.95Q205.93-10.75 206.68-12.95 207.43-15.15 208.16-17.48 208.88-19.8 209.56-22.08 210.23-24.35 210.73-26.3L210.73-26.3 218.43-26.3Q216.08-18.4 213.46-11.7 210.83-5 208.28 0L208.28 0Z" opacity="1" transform="matrix(1,0,0,1,0,0)" fill="#636365" class="wordmark-text-0" data-fill-palette-color="primary" id="text-0"></path></svg></g></svg></g></svg></g></svg></g><g transform="matrix(1,0,0,1,436.0802560122681,5.896507479224368)"><svg viewBox="0 0 123.57807219991518 74.76122326869809" height="74.76122326869809" width="123.57807219991518"><g><svg xmlns="http://www.w3.org/2000/svg" xmlns:xlink="http://www.w3.org/1999/xlink" version="1.1" viewBox="1.718998908996582 20.00261878967285 92.56200408935547 55.99738311767578" x="0" y="0" height="74.76122326869809" width="123.57807219991518" class="icon-icon-0" data-fill-palette-color="accent" id="icon-0"><path d="M28.288 74.572c-0.512 0-1.024-0.196-1.416-0.584l-24.568-24.572c-0.78-0.776-0.78-2.052 0-2.828l24.568-24.576c0.78-0.78 2.052-0.78 2.828 0 0.78 0.78 0.78 2.048 0 2.828l-23.156 23.156 23.156 23.156c0.78 0.78 0.78 2.048 0 2.828-0.388 0.396-0.9 0.592-1.412 0.592z" fill="#636365" data-fill-palette-color="accent"></path><path d="M67.716 74.572c-0.512 0-1.024-0.196-1.416-0.584-0.78-0.78-0.78-2.048 0-2.828l23.156-23.16-23.156-23.156c-0.78-0.78-0.78-2.048 0-2.828s2.048-0.78 2.828 0l24.568 24.576c0.78 0.776 0.78 2.052 0 2.828l-24.568 24.572c-0.388 0.384-0.9 0.58-1.412 0.58z" fill="#636365" data-fill-palette-color="accent"></path><path d="M38.288 76c-0.244 0-0.484-0.048-0.724-0.132-1.028-0.4-1.544-1.556-1.144-2.584l20-52c0.396-1.028 1.556-1.544 2.584-1.148 1.028 0.4 1.544 1.556 1.148 2.584l-20 52c-0.304 0.788-1.06 1.28-1.864 1.28z" fill="#636365" data-fill-palette-color="accent"></path></svg></g></svg></g></svg></g><defs></defs></svg><rect width="395.52" height="61.16934311146711" fill="none" stroke="none" visibility="hidden"></rect></g></svg></g></svg>